<?xml version="1.0" encoding="UTF-8" standalone="no"?>
<svg width="50px" height="50px" viewBox="0 0 50 50" version="1.1" xmlns="http://www.w3.org/2000/svg" xmlns:xlink="http://www.w3.org/1999/xlink">
    <!-- Generator: Sketch 49.1 (51147) - http://www.bohemiancoding.com/sketch -->
    <title>group</title>
    <desc>Created with Sketch.</desc>
    <defs>
        <linearGradient x1="50%" y1="0%" x2="50%" y2="100%" id="linearGradient-1">
            <stop stop-color="#334A84" offset="0%"></stop>
            <stop stop-color="#17244D" offset="100%"></stop>
        </linearGradient>
    </defs>
    <g id="Page-1" stroke="none" stroke-width="1" fill="none" fill-rule="evenodd">
        <g id="Artboard" transform="translate(-226.000000, -1338.000000)" fill-rule="nonzero">
            <g id="group" transform="translate(226.000000, 1338.000000)">
                <polygon id="Shape" fill="#58C0EE" points="28 6 28 20.4895446 33.7042273 20.4895446 33.6577553 24 39.9139215 20.4895446 47 20.4895446 47 6"></polygon>
                <polygon id="Shape" fill="#18759F" points="38 6 38 22 40.5409326 20.6322212 48 20.6322212 48 6"></polygon>
                <polygon id="Shape" fill="#58C0EE" points="25 0 2 0 2 16.956803 10.5770691 16.956803 17.953795 21 17.8991143 16.956803 25 16.956803"></polygon>
                <polygon id="Shape" fill="#18759F" points="26 0 14 0 14 18.5588733 18.6474382 21 18.5903801 16.956803 26 16.956803"></polygon>
                <path d="M15.5772997,38.4972677 C17.3587051,37.1187365 18.5093488,34.9583577 18.5093488,32.5321978 C18.5093488,28.3789509 15.1407238,25 11.0000489,25 C6.85927618,25 3.49055338,28.3789509 3.49055338,32.5321978 C3.49055338,34.9583577 4.64119715,37.1188346 6.42270034,38.4972677 C2.63607717,40.2424983 0,44.0824961 0,48.5288868 L0,50 L22,50 L22,48.5288868 C22,44.0824961 19.3639228,40.2424983 15.5772997,38.4972677 Z" id="Shape" fill="url(#linearGradient-1)"></path>
                <path d="M43.5772711,38.4973206 C45.3586844,37.118784 46.5094311,34.9582987 46.5094311,32.5322273 C46.5094311,28.3789642 43.1406933,25 39,25 C34.8593067,25 31.4905689,28.3789642 31.4905689,32.5322273 C31.4905689,34.9583968 32.6412178,37.1188821 34.4227289,38.4973206 C30.6360889,40.2425581 28,44.082571 28,48.528881 L28,50 L50,50 L50,48.528881 C50,44.082571 47.3639111,40.2425581 43.5772711,38.4973206 Z" id="Shape" fill="url(#linearGradient-1)"></path>
                <path d="M29.5259595,37.2006713 C31.6892297,35.7068608 33.1146396,33.1747755 33.1146396,30.3080672 C33.1146396,25.7269568 29.4744965,22 25,22 C20.5255995,22 16.8854564,25.7269568 16.8854564,30.3080672 C16.8854564,33.1746772 18.3108663,35.7068608 20.4741365,37.2006713 C16.0944048,39.0336266 13,43.4428053 13,48.5787371 L13,50 L37,50 L37,48.5787371 C37.000096,43.4428053 33.9057872,39.0336266 29.5259595,37.2006713 Z" id="Shape" fill="#F7B16C"></path>
                <g id="Group" transform="translate(9.000000, 7.000000)" fill="#FFFFFF">
                    <rect id="Rectangle-path" x="0.030877193" y="0.0636144578" width="9.46385965" height="2.89156627"></rect>
                    <rect id="Rectangle-path" x="25.1649123" y="5.07180723" width="7.7704386" height="2.89156627"></rect>
                </g>
                <path d="M29.5258635,37.2006713 C31.6891337,35.7068608 33.1145436,33.1747755 33.1145436,30.3080672 C33.1145436,25.7269568 29.4744005,22 25,22 L25,50 L37,50 L37,48.5787371 C37,43.4428053 33.9056912,39.0336266 29.5258635,37.2006713 Z" id="Shape" fill="#EA9540"></path>
                <g id="Group" transform="translate(14.000000, 7.000000)" fill="#B7E4F8">
                    <rect id="Rectangle-path" x="0.0366211604" y="0.0636144578" width="4.8537884" height="2.89156627"></rect>
                    <rect id="Rectangle-path" x="24.9489078" y="5.07180723" width="3.98477816" height="2.89156627"></rect>
                </g>
            </g>
        </g>
    </g>
</svg>