<?xml version="1.0" encoding="UTF-8" standalone="no"?>
<svg width="50px" height="50px" viewBox="0 0 50 50" version="1.1" xmlns="http://www.w3.org/2000/svg" xmlns:xlink="http://www.w3.org/1999/xlink">
    <!-- Generator: Sketch 49.1 (51147) - http://www.bohemiancoding.com/sketch -->
    <title>medal</title>
    <desc>Created with Sketch.</desc>
    <defs>
        <linearGradient x1="50%" y1="0%" x2="50%" y2="100%" id="linearGradient-1">
            <stop stop-color="#334A84" offset="0%"></stop>
            <stop stop-color="#17244D" offset="100%"></stop>
        </linearGradient>
    </defs>
    <g id="Page-1" stroke="none" stroke-width="1" fill="none" fill-rule="evenodd">
        <g id="Artboard" transform="translate(-570.000000, -1338.000000)" fill-rule="nonzero">
            <g id="medal" transform="translate(570.000000, 1338.000000)">
                <path d="M27.0766159,18.8861425 L36.0249461,0.435775663 C36.1544508,0.169313499 36.4255771,0 36.723942,0 L49.2247339,0 C49.4913042,0 49.7389723,0.135873603 49.8812724,0.359574979 C50.022894,0.583276356 50.0387912,0.86367181 49.9237298,1.10169084 L38.0597987,25.5641282 C37.9636395,25.761981 37.7871214,25.909866 37.5743498,25.9703077 C37.5046538,25.9901987 37.4327283,26 37.3608028,26 C37.2154008,26 37.0715497,25.9594493 36.9458254,25.8810385 L27.3606345,19.8689679 C27.0281486,19.6601608 26.9063017,19.2374536 27.0766159,18.8861425 Z" id="Shape" fill="#EA9540"></path>
                <path d="M43.3633212,0 L49.2099089,0 C49.4815767,0 49.7339808,0.135873603 49.8790021,0.359574979 C50.0233318,0.583276356 50.039533,0.86367181 49.9222713,1.10169084 L37.8314731,25.5641282 C37.7334751,25.761981 37.5535816,25.909866 37.3367413,25.9703077 C37.2657125,25.9901987 37.1924116,26 37.1191107,26 C36.9709282,26 36.8243264,25.9594493 36.696198,25.8810385 L32,22.9906976 L43.3633212,0 Z" id="Shape" fill="url(#linearGradient-1)"></path>
                <path d="M22.9233383,18.8861425 L13.9750851,0.435775663 C13.8455801,0.169313499 13.5744532,0 13.2760877,0 L0.775267836,0 C0.5086969,0 0.261028266,0.135873603 0.118727853,0.359574979 C-0.0228940152,0.583276356 -0.0387913365,0.86367181 0.0762703732,1.10169084 L11.940228,25.5641282 C12.0363874,25.761981 12.2129058,25.909866 12.4256779,25.9703077 C12.4953741,25.9901987 12.5672998,26 12.6392255,26 C12.7846278,26 12.9284792,25.9594493 13.0542037,25.8810385 L22.639416,19.8689679 C22.9718058,19.6601608 23.0937499,19.2374536 22.9233383,18.8861425 Z" id="Shape" fill="#EA9540"></path>
                <path d="M6.63667875,0 L0.790091072,0 C0.518423259,0 0.266019165,0.135873603 0.120997947,0.359574979 C-0.0233317521,0.583276356 -0.0395330326,0.86367181 0.077728674,1.10169084 L12.1685269,25.5641282 C12.2665249,25.761981 12.4464184,25.909866 12.6632587,25.9703077 C12.7342875,25.9901987 12.8075884,26 12.8808893,26 C13.0290718,26 13.1756736,25.9594493 13.303802,25.8810385 L18,22.9906976 L6.63667875,0 Z" id="Shape" fill="url(#linearGradient-1)"></path>
                <circle id="Oval" fill="#FFCD00" cx="24.5" cy="34.5" r="15.5"></circle>
                <path d="M24.8162966,50 C29.1838681,50 33.1379423,48.2296686 36,45.3675225 L13.6324944,23 C10.770239,25.8621461 9,29.8162058 9,34.1837613 C9,42.9187734 16.0811537,50 24.8162966,50 Z" id="Shape" fill="#FF9100"></path>
                <path d="M29.722621,42 C29.4576695,42 29.191103,41.9374015 28.945127,41.8107211 L25.4999495,40.0365034 L22.054772,41.8107211 C21.4886337,42.1015619 20.8143951,42.0533027 20.2987237,41.6859197 C19.7806299,41.3173499 19.5267811,40.7047153 19.6347804,40.0870371 L20.2924658,36.329149 L17.5049737,33.6679708 C17.0468346,33.2298802 16.8851385,32.5878746 17.0830699,31.9918538 C17.2810013,31.3958329 17.7966727,30.9689171 18.4299321,30.87853 L22.2811668,30.3303728 L24.0041088,26.9112879 C24.286421,26.3495825 24.8597257,26.0003956 25.4991421,26 L25.4999495,26 C26.1402743,26 26.7134781,26.3491869 26.9965977,26.9112879 L28.7188332,30.3303728 L32.5692604,30.87853 C33.2032263,30.9689171 33.7189987,31.3957341 33.9169301,31.9918538 C34.1148615,32.5879735 33.9531654,33.229979 33.4950263,33.6675752 L30.7075342,36.329149 L31.3659262,40.0870371 C31.4739255,40.7047153 31.2200767,41.3173499 30.7019829,41.6859197 C30.4094764,41.8941858 30.0672094,42 29.722621,42 Z M18.6325065,32.534572 L21.7236078,35.4862942 C21.9136664,35.6682551 22.0003686,35.9301206 21.9554531,36.1866459 L21.2260036,40.3544406 L21.6793988,41.1104683 L21.3040255,40.4101166 L25.1245763,38.4423677 C25.3595504,38.3210275 25.6402477,38.3210275 25.8752218,38.4423677 L29.6957726,40.4101166 L30.5702641,40.2208377 L29.774602,40.3545394 L29.044446,36.1867448 C28.9995304,35.9302195 29.0862327,35.668354 29.2762912,35.4863931 L32.3673925,32.5346708 L32.4533882,31.6616541 L32.3375161,32.4446793 L28.0666991,31.8366926 C27.8033625,31.7992126 27.5762612,31.6373267 27.4587741,31.4036454 L25.5489025,27.6117385 C25.5489025,27.6125296 25.500757,27.612134 25.4715871,27.6117385 C25.4597778,27.6117385 25.451905,27.6117385 25.451905,27.6117385 L23.5412259,31.404041 C23.4237388,31.6373267 23.1966375,31.7992126 22.9333009,31.8366926 L18.6625848,32.4446793 L18.0687906,33.1014197 L18.6325065,32.534572 Z" id="Shape" fill="#FFFFFF"></path>
                <path d="M38.000125,36 C37.739375,36 37.479625,35.8889361 37.289125,35.7081899 C37.099625,35.5170039 37,35.2551295 37,34.9937582 C37,34.7318837 37.099625,34.4705124 37.289125,34.2793264 C37.65925,33.9068912 38.329125,33.9068912 38.69925,34.2793264 C38.889625,34.4705124 39,34.7318837 39,34.9937582 C39,35.2551295 38.889625,35.5170039 38.69925,35.7081899 C38.519625,35.8889361 38.259875,36 38.000125,36 Z" id="Shape" fill="#FFFFFF"></path>
                <path d="M25,23 C24.7295,23 24.4795,22.8889361 24.289125,22.7081899 C24.099625,22.5170039 24,22.2551295 24,21.9937582 C24,21.7318837 24.099625,21.4705124 24.289125,21.2793264 C24.65925,20.9068912 25.329125,20.9068912 25.69925,21.2793264 C25.889625,21.4705124 26,21.7318837 26,21.9937582 C26,22.2551295 25.889625,22.5170039 25.69925,22.7081899 C25.5195,22.8889361 25.25975,23 25,23 Z" id="Shape" fill="#FFFFFF"></path>
                <path d="M16.0000625,27 C15.7402963,27 15.47953,26.8889361 15.2997687,26.6978759 C15.1093818,26.5170039 15,26.2551295 15,25.9937582 C15,25.7220729 15.1093818,25.4601984 15.2997687,25.2793264 C15.6601663,24.9068912 16.3398337,24.9068912 16.7099819,25.2793264 C16.8994937,25.4705124 17,25.7220729 17,25.9937582 C17,26.2551295 16.8993687,26.5170039 16.7099819,26.6978759 C16.51972,26.8890618 16.2697044,27 16.0000625,27 Z" id="Shape" fill="#FFFFFF"></path>
                <path d="M34.0000625,44 C33.7402963,44 33.47953,43.8991263 33.2900181,43.7078316 C33.1102569,43.5263597 33,43.2641637 33,42.9925226 C33,42.7303266 33.1103819,42.4686344 33.2900181,42.2870366 C33.6699169,41.9043211 34.3300831,41.9043211 34.7099819,42.2870366 C34.8897431,42.4685085 35,42.7303266 35,42.9925226 C35,43.2640378 34.8896181,43.5159071 34.7099819,43.7078316 C34.51972,43.8992523 34.2599537,44 34.0000625,44 Z" id="Shape" fill="#FFFFFF"></path>
                <path d="M34.0000625,27 C33.7402963,27 33.47953,26.8889361 33.2900181,26.7081899 C33.1102569,26.5170039 33,26.2551295 33,25.9937582 C33,25.7220729 33.1103819,25.4601984 33.2900181,25.2793264 C33.6601663,24.9068912 34.3300831,24.9068912 34.7099819,25.2793264 C34.8897431,25.4601984 35,25.7220729 35,25.9937582 C35,26.2551295 34.8896181,26.5170039 34.7099819,26.7081899 C34.51972,26.8890618 34.2599537,27 34.0000625,27 Z" id="Shape" fill="#FFFFFF"></path>
                <path d="M37.0000625,31 C36.7402963,31 36.48053,30.8894392 36.2900181,30.6978759 C36.1102569,30.5170039 36,30.2551295 36,29.9937582 C36,29.7220729 36.1103819,29.4601984 36.2900181,29.2793264 C36.6699169,28.9068912 37.3300831,28.9068912 37.7099819,29.2793264 C37.8906182,29.4601984 38,29.7220729 38,29.9937582 C38,30.2551295 37.8906182,30.5170039 37.7099819,30.6978759 C37.520595,30.8894392 37.2598287,31 37.0000625,31 Z" id="Shape" fill="#FFFFFF"></path>
                <path d="M20.0000625,24 C19.7402963,24 19.48053,23.8894392 19.3007688,23.698379 C19.1103819,23.5171297 19,23.2556326 19,22.9937582 C19,22.7323868 19.1103819,22.4705124 19.3007688,22.2793264 C19.6699169,21.9068912 20.3408338,21.9068912 20.7099819,22.2793264 C20.9003688,22.4705124 21,22.7220729 21,22.9937582 C21,23.2556326 20.9003688,23.5170039 20.7099819,23.7081899 C20.520595,23.8894392 20.2705794,24 20.0000625,24 Z" id="Shape" fill="#FFFFFF"></path>
                <path d="M37.0000625,40 C36.7402963,40 36.48053,39.8996048 36.2900181,39.707758 C36.1102569,39.516289 36,39.2643562 36,38.9922688 C36,38.7305106 36.1103819,38.4682486 36.2900181,38.2871089 C36.6601663,37.904297 37.3398337,37.904297 37.7099819,38.2871089 C37.8906182,38.4682486 38,38.7305106 38,38.9922688 C38,39.2643562 37.8906182,39.516289 37.7099819,39.707758 C37.520595,39.8996048 37.2598287,40 37.0000625,40 Z" id="Shape" fill="#FFFFFF"></path>
                <path d="M30.0000625,24 C29.7402963,24 29.48053,23.8894392 29.2900181,23.7081899 C29.1102569,23.5170039 29,23.2556326 29,22.9937582 C29,22.7220729 29.1103819,22.4607015 29.2900181,22.2793264 C29.6601663,21.9068912 30.3300831,21.9068912 30.7099819,22.2793264 C30.8906182,22.4705124 31,22.7220729 31,22.9937582 C31,23.2556326 30.8906182,23.5170039 30.7099819,23.7081899 C30.520595,23.8894392 30.2608288,24 30.0000625,24 Z" id="Shape" fill="#FFFFFF"></path>
                <path d="M38.0000625,33 C37.7295456,33 37.4697794,32.888943 37.2900181,32.7082082 C37.0996312,32.516657 37,32.2551763 37,31.9938214 C37,31.7319635 37.0996312,31.4706086 37.2900181,31.2789316 C37.6601663,30.9070228 38.3300831,30.9070228 38.7002313,31.2789316 C38.8897431,31.4704828 39,31.7319635 39,31.9938214 C39,32.2551763 38.8896181,32.5165312 38.7002313,32.7082082 C38.51972,32.8890688 38.2598287,33 38.0000625,33 Z" id="Shape" fill="#FFFFFF"></path>
                <path d="M23.0000625,23 C22.7295456,23 22.47953,22.8894392 22.2900181,22.7081899 C22.0996312,22.5170039 22,22.2654435 22,21.9937582 C22,21.7323868 22.0996312,21.4705124 22.2900181,21.2793264 C22.6601663,20.9068912 23.3300831,20.9068912 23.7099819,21.2793264 C23.8897431,21.4705124 24,21.7323868 24,21.9937582 C24,22.2551295 23.8896181,22.5170039 23.7099819,22.7081899 C23.51972,22.8894392 23.2599537,23 23.0000625,23 Z" id="Shape" fill="#FFFFFF"></path>
                <path d="M36.0000625,43 C35.7392962,43 35.47953,42.8894183 35.2900181,42.708638 C35.1093818,42.5170386 35,42.2654306 35,41.9935683 C35,41.7321476 35.1093818,41.470727 35.2900181,41.2790017 C35.6601663,40.9069994 36.3398337,40.9069994 36.7099819,41.2790017 C36.8897431,41.4706012 37,41.7321476 37,41.9935683 C37,42.2653048 36.8896181,42.5169128 36.7099819,42.708638 C36.519595,42.8894183 36.2598287,43 36.0000625,43 Z" id="Shape" fill="#FFFFFF"></path>
                <path d="M32.0000625,25 C31.7402963,25 31.48053,24.8894392 31.2900181,24.7081899 C31.1102569,24.5170039 31,24.2556326 31,23.9937582 C31,23.7220729 31.1103819,23.4705124 31.2900181,23.2793264 C31.6601663,22.9068912 32.3408338,22.9068912 32.7002313,23.2793264 C32.8906182,23.4605758 33,23.7220729 33,23.9937582 C33,24.2556326 32.8906182,24.5170039 32.7002313,24.7081899 C32.520595,24.8894392 32.2608288,25 32.0000625,25 Z" id="Shape" fill="#FFFFFF"></path>
                <path d="M36.0000625,29 C35.7402963,29 35.47953,28.89925 35.2900181,28.7081899 C35.1093818,28.5269406 35,28.2654435 35,27.9937582 C35,27.7323868 35.1093818,27.4705124 35.2900181,27.2793264 C35.6699169,26.9068912 36.3300831,26.9068912 36.7099819,27.2793264 C36.8994937,27.4705124 37,27.7323868 37,27.9937582 C37,28.2654435 36.8993687,28.5268148 36.7099819,28.7081899 C36.519595,28.8993758 36.2695793,29 36.0000625,29 Z" id="Shape" fill="#FFFFFF"></path>
                <path d="M18.0000625,25 C17.7295456,25 17.47953,24.8987534 17.2900181,24.7067514 C17.1093818,24.5246086 17,24.2618224 17,23.998657 C17,23.7256324 17.1093818,23.4629726 17.2900181,23.2807034 C17.6601663,22.9064322 18.3398337,22.9064322 18.7099819,23.2807034 C18.8897431,23.4628462 19,23.7256324 19,23.998657 C19,24.2618224 18.8896181,24.5244822 18.7099819,24.7067514 C18.51972,24.8987534 18.2598287,25 18.0000625,25 Z" id="Shape" fill="#FFFFFF"></path>
                <path d="M38.0000625,38 C37.7402963,38 37.48053,37.89925 37.2900181,37.7081899 C37.1102569,37.5170039 37,37.2654435 37,36.9937582 C37,36.7323868 37.1103819,36.4705124 37.2900181,36.2793264 C37.6699169,35.9068912 38.3300831,35.9068912 38.7099819,36.2793264 C38.9003688,36.4705124 39,36.7323868 39,36.9937582 C39,37.2654435 38.9003688,37.5170039 38.7099819,37.7081899 C38.520595,37.8993758 38.2705794,38 38.0000625,38 Z" id="Shape" fill="#FFFFFF"></path>
                <path d="M28.0000625,23 C27.7295456,23 27.47953,22.8991263 27.2900181,22.7078316 C27.1093818,22.5164109 27,22.2645415 27,21.9925226 C27,21.7303266 27.1093818,21.4686344 27.2900181,21.2870366 C27.6601663,20.9043211 28.3300831,20.9043211 28.7099819,21.2870366 C28.8897431,21.4685085 29,21.7303266 29,21.9925226 C29,22.2645415 28.8896181,22.5262338 28.7099819,22.7078316 C28.51972,22.8991263 28.2598287,23 28.0000625,23 Z" id="Shape" fill="#FFFFFF"></path>
                <path d="M29.3774466,42 C29.7126834,42 30.0456618,41.8995142 30.3302301,41.7017357 C30.8342636,41.3517258 31.0812234,40.7699413 30.976155,40.1833673 L30.9406085,39.985401 L29.0166792,38.1453842 L29.4280169,40.4372113 L30.202086,40.3102424 L29.3513269,40.4899898 L25.63446,38.62133 C25.4058627,38.5061 25.1327832,38.5061 24.9041858,38.62133 L21.187319,40.4899898 L21.5525052,41.1550742 L21.1114145,40.4371174 L21.8210678,36.4791985 C21.8647644,36.2355909 21.7804152,35.9869121 21.5955145,35.8141141 L18.588301,33.0110304 L18.0397852,33.5491458 L18.6174648,32.9254766 L22.7722801,32.348106 C22.8222612,32.3411565 22.8692965,32.3262245 22.9160372,32.3106351 L21.5457298,31 L18.391126,31.438287 C17.7751504,31.5241226 17.2733754,31.9294465 17.0808155,32.4955477 C16.8882557,33.0616489 17.0455636,33.6713253 17.4912695,34.0872613 L20.2031133,36.6144317 L19.5632764,40.1830856 C19.4582081,40.7696596 19.7051678,41.3514441 20.2092013,41.7014539 C20.7108782,42.0503368 21.366819,42.0961658 21.9175932,41.8199708 L25.2692738,40.1350966 L28.6209545,41.8199708 C28.8604514,41.9405537 29.1196855,42 29.3774466,42 Z" id="Shape" fill="#FFCD00"></path>
                <path d="M13.0000625,36 C12.7392962,36 12.47953,35.8889361 12.2890181,35.7081899 C12.1092568,35.5170039 12,35.2551295 12,34.9937582 C12,34.7318837 12.1093818,34.4705124 12.2890181,34.2793264 C12.6591662,33.9068912 13.3290831,33.9068912 13.6992312,34.2793264 C13.8896181,34.4705124 14,34.7318837 14,34.9937582 C14,35.2551295 13.8896181,35.5170039 13.6992312,35.7081899 C13.519595,35.8889361 13.2598287,36 13.0000625,36 Z" id="Shape" fill="#FFCD00"></path>
                <path d="M25,48 C24.73925,48 24.4795,47.8889361 24.289125,47.7081899 C24.099625,47.5170039 24,47.2551295 24,46.9937582 C24,46.7318837 24.099625,46.4705124 24.289125,46.2793264 C24.67,45.9068912 25.329125,45.9068912 25.69925,46.2793264 C25.889625,46.4705124 26,46.7318837 26,46.9937582 C26,47.2551295 25.889625,47.5170039 25.69925,47.7081899 C25.5195,47.8889361 25.25975,48 25,48 Z" id="Shape" fill="#FFCD00"></path>
                <path d="M16.0000625,44 C15.7402963,44 15.47953,43.8989408 15.2997687,43.7072942 C15.1093818,43.515143 15,43.2528432 15,42.9906697 C15,42.7279915 15.1093818,42.4658179 15.2997687,42.2838861 C15.6699169,41.9103078 16.3398337,41.9004668 16.7099819,42.2838861 C16.8994937,42.4656918 17,42.7279915 17,42.9906697 C17,43.2528432 16.8993687,43.5150168 16.7099819,43.7072942 C16.5304707,43.899067 16.2697044,44 16.0000625,44 Z" id="Shape" fill="#FFCD00"></path>
                <path d="M14.0000625,40 C13.7295456,40 13.4697794,39.8996048 13.2900181,39.707758 C13.0996312,39.516289 13,39.2545309 13,38.9922688 C13,38.7305106 13.0996312,38.4682486 13.2900181,38.2871089 C13.6601663,37.904297 14.3300831,37.904297 14.7002313,38.2871089 C14.8897431,38.4682486 15,38.7305106 15,38.9922688 C15,39.2545309 14.8896181,39.516289 14.7002313,39.707758 C14.519595,39.8996048 14.2598287,40 14.0000625,40 Z" id="Shape" fill="#FFCD00"></path>
                <path d="M30.0000625,47 C29.7402963,47 29.48053,46.89925 29.2900181,46.7081899 C29.1102569,46.5273179 29,46.2654435 29,45.9937582 C29,45.7323868 29.1103819,45.4705124 29.2900181,45.2793264 C29.6699169,44.9068912 30.3300831,44.9068912 30.7099819,45.2793264 C30.8906182,45.4705124 31,45.7323868 31,45.9937582 C31,46.2556326 30.8906182,46.5170039 30.7099819,46.7081899 C30.520595,46.89925 30.2608288,47 30.0000625,47 Z" id="Shape" fill="#FFCD00"></path>
                <path d="M14.0000625,31 C13.7295456,31 13.4697794,30.8894392 13.2900181,30.6978759 C13.0996312,30.5170039 13,30.2551295 13,29.9937582 C13,29.7220729 13.0996312,29.4601984 13.2900181,29.2793264 C13.6601663,28.9068912 14.3300831,28.9068912 14.7002313,29.2793264 C14.8897431,29.4705124 15,29.7220729 15,29.9937582 C15,30.2551295 14.8896181,30.5170039 14.7002313,30.6978759 C14.519595,30.8894392 14.2598287,31 14.0000625,31 Z" id="Shape" fill="#FFCD00"></path>
                <path d="M20.0000625,47 C19.7402963,47 19.48053,46.8991263 19.3007688,46.7078316 C19.1103819,46.5164109 19,46.2645415 19,45.9925226 C19,45.7308304 19.1103819,45.4686344 19.3007688,45.2870366 C19.6699169,44.9043211 20.3408338,44.9043211 20.7099819,45.2870366 C20.9003688,45.4685085 21,45.7307044 21,45.9925226 C21,46.2645415 20.9003688,46.5164109 20.7099819,46.7078316 C20.5303456,46.8991263 20.2705794,47 20.0000625,47 Z" id="Shape" fill="#FFCD00"></path>
                <path d="M13.0000625,38 C12.7402963,38 12.48053,37.8889361 12.2900181,37.7081899 C12.1102569,37.5170039 12,37.2551295 12,36.9937582 C12,36.7318837 12.1103819,36.4705124 12.2900181,36.2793264 C12.6699169,35.9068912 13.3300831,35.9068912 13.7099819,36.2793264 C13.8906182,36.4705124 14,36.7318837 14,36.9937582 C14,37.2551295 13.8906182,37.5170039 13.7099819,37.7081899 C13.520595,37.8890618 13.2598287,38 13.0000625,38 Z" id="Shape" fill="#FFCD00"></path>
                <path d="M28.0000625,48 C27.7305457,48 27.4697794,47.8894392 27.2900181,47.7081899 C27.0996312,47.5170039 27,47.2556326 27,46.9937582 C27,46.7323868 27.0996312,46.4705124 27.2900181,46.2793264 C27.6601663,45.9068912 28.3300831,45.9068912 28.7002313,46.2793264 C28.8897431,46.4705124 29,46.7323868 29,46.9937582 C29,47.2556326 28.8896181,47.5170039 28.7002313,47.7081899 C28.52072,47.8894392 28.2599537,48 28.0000625,48 Z" id="Shape" fill="#FFCD00"></path>
                <path d="M15.0000625,29 C14.7305457,29 14.4707794,28.8894392 14.2900181,28.7081899 C14.1005063,28.5170039 14,28.2551295 14,27.9937582 C14,27.7220729 14.1006313,27.4705124 14.2900181,27.2793264 C14.6601663,26.9068912 15.3300831,26.9068912 15.7002313,27.2793264 C15.8906182,27.4705124 16,27.7318837 16,27.9937582 C16,28.2551295 15.8906182,28.5170039 15.7002313,28.7081899 C15.520595,28.8894392 15.2608288,29 15.0000625,29 Z" id="Shape" fill="#FFCD00"></path>
                <path d="M18.0000625,46 C17.7295456,46 17.4697794,45.8893034 17.2900181,45.7078316 C17.0996312,45.5164109 17,45.2645415 17,44.9925226 C17,44.7303266 17.0996312,44.4686344 17.2900181,44.2870366 C17.6591662,43.9043211 18.3300831,43.9043211 18.6992312,44.2870366 C18.8896181,44.4685085 19,44.7303266 19,44.9925226 C19,45.2645415 18.8896181,45.5164109 18.6992312,45.7078316 C18.51972,45.8893034 18.2598287,46 18.0000625,46 Z" id="Shape" fill="#FFCD00"></path>
                <path d="M15.0000625,43 C14.7402963,43 14.48053,42.8894392 14.2900181,42.698379 C14.1102569,42.5171297 14,42.2556326 14,41.9937582 C14,41.7220729 14.1103819,41.4705124 14.2900181,41.2793264 C14.6699169,40.9068912 15.3398337,40.9068912 15.7099819,41.2793264 C15.9003688,41.4705124 16,41.7220729 16,41.9937582 C16,42.2556326 15.9003688,42.5170039 15.7099819,42.698379 C15.520595,42.8894392 15.2705794,43 15.0000625,43 Z" id="Shape" fill="#FFCD00"></path>
                <path d="M32.0000625,46 C31.7305457,46 31.4707794,45.8989249 31.2900181,45.7072482 C31.1005063,45.5257926 31,45.2630731 31,44.9905111 C31,44.7282964 31.1006313,44.4655769 31.2900181,44.2841213 C31.6504157,43.9104842 32.3300831,43.9001369 32.7002313,44.2841213 C32.8906182,44.4655769 33,44.7282964 33,44.9905111 C33,45.2630731 32.8906182,45.5257926 32.7002313,45.7072482 C32.520595,45.8989249 32.2608288,46 32.0000625,46 Z" id="Shape" fill="#FFCD00"></path>
                <path d="M13,33 C12.74025,33 12.4805,32.8894392 12.29,32.698379 C12.11025,32.5171297 12,32.2556326 12,31.9937582 C12,31.7220729 12.110375,31.4705124 12.29,31.2793264 C12.660125,30.9068912 13.34075,30.9068912 13.710875,31.2793264 C13.900375,31.4705124 14,31.7220729 14,31.9937582 C14,32.2556326 13.900375,32.5170039 13.710875,32.698379 C13.5205,32.8894392 13.26075,33 13,33 Z" id="Shape" fill="#FFCD00"></path>
                <path d="M22.9951636,48 C22.7341247,48 22.4730859,47.8889361 22.291439,47.6978759 C22.1009987,47.5170039 22,47.2551295 22,46.9937582 C22,46.7220729 22.1011243,46.4601984 22.291439,46.2793264 C22.6634005,45.9068912 23.3365995,45.9068912 23.708561,46.2793264 C23.8998807,46.4601984 24,46.7220729 24,46.9937582 C24,47.2551295 23.8998807,47.5170039 23.708561,47.6978759 C23.5280447,47.8889361 23.2670058,48 22.9951636,48 Z" id="Shape" fill="#FFCD00"></path>
                <path d="M15.1749598,25 C15.0639543,25.1052092 15,25.2570237 15,25.4146912 C15,25.5667252 15.0640275,25.7190518 15.175472,25.824261 C15.2806966,25.9354697 15.433265,26 15.5853944,26 C15.7427192,26 15.8886287,25.935616 16,25.8249195 L15.1749598,25 Z" id="Shape" fill="#FFCD00"></path>
                <path d="M33.5853088,44 C33.7369769,44 33.8885718,43.9413578 34,43.8302385 L33.1723734,43 C33.1716418,43.0007339 33.1705443,43.0009541 33.1697395,43.0016881 C33.0645303,43.1074495 33,43.2600367 33,43.412844 C33,43.5710826 33.0646035,43.7238899 33.1697395,43.8297248 C33.2806555,43.9412844 33.4332748,44 33.5853088,44 Z" id="Shape" fill="#FFCD00"></path>
            </g>
        </g>
    </g>
</svg>