<?xml version="1.0" encoding="UTF-8" standalone="no"?>
<svg width="50px" height="50px" viewBox="0 0 50 50" version="1.1" xmlns="http://www.w3.org/2000/svg" xmlns:xlink="http://www.w3.org/1999/xlink">
    <!-- Generator: Sketch 49.1 (51147) - http://www.bohemiancoding.com/sketch -->
    <title>programming</title>
    <desc>Created with Sketch.</desc>
    <defs>
        <linearGradient x1="50%" y1="0%" x2="50%" y2="100%" id="linearGradient-1">
            <stop stop-color="#334A84" offset="0%"></stop>
            <stop stop-color="#17244D" offset="100%"></stop>
        </linearGradient>
    </defs>
    <g id="Page-1" stroke="none" stroke-width="1" fill="none" fill-rule="evenodd">
        <g id="Artboard" transform="translate(-397.000000, -1338.000000)" fill-rule="nonzero">
            <g id="programming" transform="translate(397.000000, 1338.000000)">
                <polygon id="Shape" fill="#CCD1D9" points="33.325293 49.9871938 16.6619141 49.9871938 18.7396484 38.1198218 31.2443359 38.1163697"></polygon>
                <g id="Group" fill="#E6E9ED">
                    <path d="M49.9885742,39.2994432 C49.9885742,39.9570156 49.5216797,40.4857461 48.946582,40.4857461 L1.04042969,40.4857461 C0.466796875,40.4856347 0,39.9570156 0,39.2993318 L0,1.29743875 C0,0.641648107 0.466796875,0.111135857 1.04042969,0.111135857 L48.946582,0.111135857 C49.5216797,0.111135857 49.9885742,0.641648107 49.9885742,1.29743875 L49.9885742,39.2994432 Z" id="Shape"></path>
                    <path d="M33.325293,49.9871938 L16.6619141,49.9871938 C16.0882813,49.9871938 15.6214844,49.4550111 15.6214844,48.8008909 C15.6214844,48.1433185 16.0882813,47.6109131 16.6619141,47.6109131 L33.325293,47.6109131 C33.9003906,47.6109131 34.3671875,48.1432071 34.3671875,48.8008909 C34.3671875,49.4551225 33.900293,49.9871938 33.325293,49.9871938 Z" id="Shape"></path>
                </g>
                <path d="M48.946582,0.111135857 L1.04042969,0.111135857 C0.466796875,0.111135857 0,0.641648107 0,1.29743875 L0,33.3604677 L49.9885742,33.3604677 L49.9885742,1.29743875 C49.9885742,0.641648107 49.5216797,0.111135857 48.946582,0.111135857 Z" id="Shape" fill="url(#linearGradient-1)"></path>
                <path d="M26.034668,36.9230512 C26.034668,37.5806236 25.5693359,38.1129176 24.9942383,38.1129176 C24.4191406,38.1129176 23.9523438,37.580735 23.9523438,36.9230512 C23.9523438,36.268931 24.4191406,35.7367483 24.9942383,35.7367483 C25.5693359,35.7367483 26.034668,36.268931 26.034668,36.9230512 Z" id="Shape" fill="#434A54"></path>
                <path d="M36.4495117,4.86013363 L5.20673828,4.86013363 C4.63154297,4.86013363 4.16484375,5.39242762 4.16484375,6.04821826 C4.16484375,6.70412027 4.63164062,7.23641425 5.20673828,7.23641425 L36.4495117,7.23641425 C37.0246094,7.23641425 37.4915039,6.70412027 37.4915039,6.04821826 C37.4915039,5.39242762 37.0245117,4.86013363 36.4495117,4.86013363 Z" id="Shape" fill="#FC6E51"></path>
                <path d="M5.20673828,11.9855234 L21.8700195,11.9855234 C22.4452148,11.9855234 22.9104492,11.4548998 22.9104492,10.7991091 C22.9104492,10.1415367 22.4452148,9.6110245 21.8700195,9.6110245 L5.20673828,9.6110245 C4.63154297,9.6110245 4.16484375,10.1415367 4.16484375,10.7991091 C4.16474609,11.4548998 4.63154297,11.9855234 5.20673828,11.9855234 Z" id="Shape" fill="#AC92EB"></path>
                <path d="M5.20673828,16.7360802 L28.1186523,16.7360802 C28.6938477,16.7360802 29.159082,16.2037862 29.159082,15.5479955 C29.159082,14.8922049 28.69375,14.3616927 28.1186523,14.3616927 L5.20673828,14.3616927 C4.63154297,14.3616927 4.16484375,14.8922049 4.16484375,15.5479955 C4.16474609,16.2037862 4.63154297,16.7360802 5.20673828,16.7360802 Z" id="Shape" fill="#48CFAD"></path>
                <path d="M5.20673828,21.4853007 L19.7861328,21.4870824 C20.362793,21.4870824 20.8280273,20.9547884 20.8280273,20.2989978 C20.8280273,19.6432071 20.362793,19.1109131 19.7861328,19.1109131 L5.20673828,19.1109131 C4.63154297,19.1109131 4.16484375,19.6432071 4.16484375,20.2989978 C4.16474609,20.9546771 4.63154297,21.4853007 5.20673828,21.4853007 Z" id="Shape" fill="#5D9CEC"></path>
                <path d="M32.2833008,23.8613586 L5.20673828,23.8613586 C4.63154297,23.8613586 4.16484375,24.3936526 4.16484375,25.0477728 C4.16484375,25.7053452 4.63164062,26.2359688 5.20673828,26.2359688 L32.2833008,26.2359688 C32.8599609,26.2359688 33.325293,25.7053452 33.325293,25.0495546 C33.325293,24.3938753 32.8599609,23.8613586 32.2833008,23.8613586 Z" id="Shape" fill="#FFCE54"></path>
                <path d="M13.5375977,28.6113586 L5.20673828,28.6113586 C4.63154297,28.6113586 4.16484375,29.1437639 4.16484375,29.7977728 C4.16484375,30.4553452 4.63164062,30.9877506 5.20673828,30.9877506 L13.5376953,30.9877506 C14.1143555,30.9877506 14.5795898,30.4554566 14.5795898,29.7977728 C14.5795898,29.1437639 14.1142578,28.6113586 13.5375977,28.6113586 Z" id="Shape" fill="#ED5564"></path>
            </g>
        </g>
    </g>
</svg>