<?xml version="1.0" encoding="UTF-8" standalone="no"?>
<svg width="59px" height="43px" viewBox="0 0 59 43" version="1.1" xmlns="http://www.w3.org/2000/svg" xmlns:xlink="http://www.w3.org/1999/xlink">
    <!-- Generator: Sketch 49.1 (51147) - http://www.bohemiancoding.com/sketch -->
    <title>winner</title>
    <desc>Created with Sketch.</desc>
    <defs></defs>
    <g id="Page-1" stroke="none" stroke-width="1" fill="none" fill-rule="evenodd">
        <g id="Artboard" transform="translate(-734.000000, -1341.000000)" fill-rule="nonzero">
            <g id="winner" transform="translate(734.000000, 1341.000000)">
                <g id="Group" transform="translate(0.000000, 4.000000)" fill="#FF901D">
                    <path d="M4.23855078,4.43119737 C5.63887891,2.86117105 7.10627344,1.44840789 8.72197461,0.136776316 C8.91199609,-0.0174078947 9.1855625,0.167210526 9.12195312,0.40725 C8.21632617,3.82784211 6.63404297,7.20828947 4.19487695,9.72130263 C4.08528906,7.96203947 4.08367578,6.18809211 4.23855078,4.43119737 Z" id="Shape"></path>
                    <path d="M4.19499219,9.72260526 C2.78671289,7.97613158 1.57652148,6.17044737 0.486173828,4.221 C0.361490234,3.99813158 0.0298457031,4.07759211 0.0171699219,4.33444737 C-0.179535156,8.32772368 1.30514453,13.0001447 4.92235156,14.8846974 C4.56189844,13.1865395 4.30216016,11.4584211 4.19499219,9.72260526 Z" id="Shape"></path>
                    <path d="M4.92212109,14.8833947 C5.80838867,13.0093816 6.80044141,11.2658684 7.96327148,9.57588158 C8.10120703,9.37539474 8.41061133,9.46728947 8.42063672,9.71265789 C8.56225977,13.1621447 7.98631836,16.8085658 6.37799219,19.8365921 C5.78176953,18.2248816 5.27888672,16.5693553 4.92212109,14.8833947 Z" id="Shape"></path>
                    <path d="M6.37833789,19.8377763 C4.54968359,18.63 2.87924609,17.3094868 1.27691211,15.8261447 C1.09207617,15.6550263 0.802146484,15.8337237 0.86471875,16.0811053 C1.83003711,19.8953289 4.5905918,23.8095 8.52077539,24.5008421 C7.70376367,23.0016316 6.97191016,21.4454605 6.37833789,19.8377763 Z" id="Shape"></path>
                    <path d="M8.52008398,24.4997763 C8.84043555,22.4553553 9.29860742,20.5050789 9.93642969,18.5552763 C10.0122539,18.3234079 10.3327207,18.3189079 10.4122324,18.5495921 C11.5277012,21.7858026 11.9795352,25.4368421 11.3065664,28.7921842 C10.2835156,27.4315263 9.3370957,26.0015921 8.52008398,24.4997763 Z" id="Shape"></path>
                    <path d="M11.3072578,28.79325 C9.2227832,28.1863421 7.25342773,27.4273816 5.30308594,26.4970658 C5.07780273,26.3895395 4.85194336,26.6472237 4.9818125,26.8647632 C6.98712109,30.2254342 10.741457,33.1350395 14.6957246,32.6336447 C13.4818457,31.4385395 12.3348027,30.1618421 11.3072578,28.79325 Z" id="Shape"></path>
                    <path d="M14.6948027,32.6328158 C14.4104043,30.573 14.2895234,28.5639868 14.3454121,26.4988421 C14.3519805,26.2540658 14.657582,26.1537632 14.7990898,26.3508158 C16.796332,29.1334737 18.2863125,32.5136842 18.6428477,35.9406711 C17.254043,34.9376447 15.9205508,33.8413026 14.6948027,32.6328158 Z" id="Shape"></path>
                    <path d="M54.7614492,4.43119737 C53.3611211,2.86117105 51.8937266,1.44840789 50.2780254,0.136776316 C50.0880039,-0.0174078947 49.8144375,0.167210526 49.8780469,0.40725 C50.7836738,3.82784211 52.365957,7.20828947 54.805123,9.72130263 C54.9147109,7.96203947 54.9163242,6.18809211 54.7614492,4.43119737 Z" id="Shape"></path>
                    <path d="M54.8050078,9.72260526 C56.2132871,7.97613158 57.4234785,6.17044737 58.5138262,4.221 C58.6385098,3.99813158 58.9701543,4.07759211 58.9828301,4.33444737 C59.1795352,8.32772368 57.6948555,13.0001447 54.0776484,14.8846974 C54.4381016,13.1865395 54.6978398,11.4584211 54.8050078,9.72260526 Z" id="Shape"></path>
                    <path d="M54.0778789,14.8833947 C53.1916113,13.0093816 52.1995586,11.2658684 51.0367285,9.57588158 C50.898793,9.37539474 50.5893887,9.46728947 50.5793633,9.71265789 C50.4377402,13.1621447 51.0136816,16.8085658 52.6220078,19.8365921 C53.2182305,18.2248816 53.7211133,16.5693553 54.0778789,14.8833947 Z" id="Shape"></path>
                    <path d="M52.6216621,19.8377763 C54.4503164,18.63 56.1207539,17.3094868 57.7230879,15.8261447 C57.9079238,15.6550263 58.1978535,15.8337237 58.1352813,16.0811053 C57.1699629,19.8953289 54.4094082,23.8095 50.4792246,24.5008421 C51.2962363,23.0016316 52.0280898,21.4454605 52.6216621,19.8377763 Z" id="Shape"></path>
                    <path d="M50.479916,24.4997763 C50.1595645,22.4553553 49.7013926,20.5050789 49.0635703,18.5552763 C48.9877461,18.3234079 48.6672793,18.3189079 48.5877676,18.5495921 C47.4722988,21.7858026 47.0204648,25.4368421 47.6934336,28.7921842 C48.7164844,27.4315263 49.6629043,26.0015921 50.479916,24.4997763 Z" id="Shape"></path>
                    <path d="M47.6927422,28.79325 C49.7772168,28.1863421 51.7465723,27.4273816 53.6969141,26.4970658 C53.9221973,26.3895395 54.1480566,26.6472237 54.0181875,26.8647632 C52.0128789,30.2254342 48.258543,33.1350395 44.3042754,32.6336447 C45.5181543,31.4385395 46.6651973,30.1618421 47.6927422,28.79325 Z" id="Shape"></path>
                    <path d="M44.3051973,32.6328158 C44.5895957,30.573 44.7104766,28.5639868 44.6545879,26.4988421 C44.6480195,26.2540658 44.342418,26.1537632 44.2009102,26.3508158 C42.203668,29.1334737 40.7136875,32.5136842 40.3571523,35.9406711 C41.745957,34.9376447 43.0794492,33.8413026 44.3051973,32.6328158 Z" id="Shape"></path>
                </g>
                <g id="Group" transform="translate(3.000000, 0.000000)" fill="#F7BC14">
                    <path d="M20.4681118,41.1787344 C18.8584693,40.3829431 17.3871382,39.5171165 16.0947982,38.6056098 C16.0944496,38.6053767 16.0942171,38.6052602 16.0938684,38.6050271 C16.093636,38.6049106 16.0935197,38.6046775 16.0932873,38.604561 C14.6510132,37.5884092 13.3506535,36.5257615 12.2278904,35.4458672 C12.2276579,35.4456341 12.2274254,35.4452846 12.227193,35.4450515 C10.966932,34.2347588 9.85021272,33.0002276 8.90783553,31.7756016 C8.90760307,31.775252 8.90725439,31.7749024 8.90702193,31.7745528 C8.9069057,31.7744363 8.9069057,31.7743198 8.90678947,31.7742033 C7.84376754,30.3947073 6.92521711,29.0146287 6.17670833,27.6719566 C6.17635965,27.6712575 6.17589474,27.6706748 6.17554605,27.6699756 C5.32661623,26.1495935 4.62076316,24.6511192 4.07774561,23.2159214 C4.07751316,23.2153388 4.0772807,23.2148726 4.07704825,23.2144065 L4.07704825,23.21429 C3.45685526,21.5780759 2.97694956,19.985561 2.65046491,18.4809106 C2.65046491,18.4806775 2.65034868,18.480561 2.65034868,18.4804444 C2.27551316,16.7575312 2.03573465,15.098477 1.93775439,13.5496612 C1.93775439,13.5488455 1.93752193,13.5481463 1.93752193,13.5474472 C1.82361842,11.7637046 1.83779825,10.0635149 1.97971272,8.4941897 C1.98145614,8.47519512 1.98145614,8.45631707 1.98192105,8.43743902 C2.1692807,6.01067751 2.61733991,3.57808943 3.31587061,1.2058645 C3.45627412,0.728902439 3.18441667,0.228168022 2.70869518,0.087398374 C2.23320614,-0.0534878049 1.73354167,0.21896206 1.59313816,0.696157182 C0.851486842,3.21497832 0.377392544,5.79952304 0.184105263,8.37800813 C0.182826754,8.39560434 0.183175439,8.41285095 0.182826754,8.43021409 C0.0407960526,10.0642141 0.0274298246,11.8236016 0.144936404,13.662813 C0.144936404,13.6631626 0.144936404,13.6633957 0.144936404,13.6637453 C0.248611842,15.3015908 0.500710526,17.0495583 0.894375,18.8594038 C0.894723684,18.8608022 0.894839912,18.8623171 0.895072368,18.8637154 C1.24038596,20.4555312 1.74597807,22.1346287 2.39790132,23.8540461 C2.39801754,23.8542791 2.39801754,23.8545122 2.39813377,23.8547453 C2.97264912,25.3729133 3.71627632,26.9527263 4.60844298,28.550252 C4.60855921,28.5504851 4.60867544,28.5507182 4.60879167,28.5509512 C4.60914035,28.5515339 4.60937281,28.552 4.60972149,28.5524661 C4.60972149,28.5524661 4.60972149,28.5524661 4.60983772,28.5525827 C5.40146711,29.9719322 6.36883333,31.4262412 7.48532018,32.8751897 C7.48578509,32.8757724 7.48625,32.876122 7.48659868,32.8767046 C8.48278947,34.1710163 9.65890132,35.4719702 10.9823904,36.7432087 C10.982739,36.7435583 10.9829715,36.7439079 10.9833202,36.7442575 C12.1717522,37.8875447 13.5435921,39.0091572 15.0608333,40.0780976 C15.0610658,40.0782141 15.061182,40.0783306 15.0614145,40.0784472 C16.4291864,41.0434417 17.9810636,41.9570461 19.673693,42.7939729 C19.8015439,42.8571328 19.9369496,42.8870813 20.0702632,42.8870813 C20.4013969,42.8870813 20.7200943,42.7026125 20.8764211,42.3847154 C21.0957434,41.9386341 20.9129167,41.3987453 20.4681118,41.1787344 Z" id="Shape"></path>
                    <path d="M52.8171732,8.43021409 C52.8168246,8.41285095 52.8171732,8.39572087 52.8158947,8.37824119 C52.6226075,5.79928997 52.1485132,3.21462873 51.4068618,0.696273713 C51.2664583,0.219428184 50.7671425,-0.0525555556 50.2911886,0.0876314363 C49.8154671,0.228401084 49.5437259,0.729252033 49.6841294,1.20621409 C50.3825439,3.57785637 50.8306031,6.01032791 51.0180789,8.43732249 C51.0186601,8.45631707 51.0186601,8.47531165 51.0204035,8.49442276 C51.162318,10.0631653 51.1764978,11.7634715 51.0625943,13.5479133 C51.0625943,13.5482629 51.0625943,13.5486125 51.0625943,13.5488455 C51.0625943,13.5491951 51.0624781,13.5494282 51.0624781,13.5497778 C50.9644978,15.0978943 50.7247193,16.756832 50.3497675,18.480561 C50.3497675,18.4806775 50.3496513,18.4809106 50.3496513,18.4810271 C50.0233991,19.9856775 49.5433772,21.5781924 48.923068,23.21429 C48.9229518,23.214523 48.9229518,23.2146396 48.9228355,23.2148726 C48.9227193,23.2153388 48.9224868,23.2156883 48.9222544,23.2160379 C48.3793531,24.6511192 47.6732675,26.1500596 46.8236404,27.671607 C46.8235241,27.6717236 46.8234079,27.6719566 46.8232917,27.6720732 C46.0748991,29.0143957 45.1563487,30.3944743 44.0930943,31.7743198 C44.0928618,31.7746694 44.0926294,31.775019 44.0923969,31.7753686 C44.0922807,31.7754851 44.0922807,31.7754851 44.0921645,31.7756016 C43.150136,32.9997615 42.0331842,34.2342927 40.772807,35.4450515 C40.7725746,35.4452846 40.7723421,35.4456341 40.7721096,35.4458672 C39.6498114,36.5254119 38.3492193,37.5881762 36.9065965,38.604561 C36.9062478,38.604794 36.9058991,38.6051436 36.9054342,38.6054932 C36.905318,38.6054932 36.9052018,38.6056098 36.9050855,38.6056098 C35.6127456,39.5173496 34.1414145,40.3830596 32.5317719,41.1787344 C32.0868509,41.3986287 31.9040241,41.9385176 32.1234627,42.3844824 C32.2797895,42.7026125 32.5983706,42.8869648 32.9296206,42.8869648 C33.0629342,42.8869648 33.1983399,42.8570163 33.3260746,42.7938564 C35.0184715,41.9571626 36.5701162,41.0436748 37.9378882,40.0787967 C37.9383531,40.0784472 37.938818,40.0783306 37.9392829,40.077981 C39.4567566,39.0086911 40.8285965,37.8870786 42.0166798,36.7441409 C42.0170285,36.7437913 42.017261,36.7434417 42.0176096,36.7430921 C43.3416798,35.4710379 44.5181404,34.1698509 45.5140987,32.8756558 C45.5142149,32.8756558 45.5142149,32.8755393 45.5143311,32.8754228 C45.5144474,32.8753062 45.5145636,32.8751897 45.5146798,32.8750732 C46.6317478,31.4251924 47.5996952,29.9703008 48.3912083,28.5508347 C48.3917895,28.5499024 48.3921382,28.5489702 48.3926031,28.5480379 C49.2845373,26.9506287 50.0278158,25.3715149 50.6016338,23.8547453 C50.6016338,23.8546287 50.60175,23.8546287 50.60175,23.8543957 C50.60175,23.8542791 50.6018662,23.8542791 50.6018662,23.8540461 C51.2534408,22.135561 51.7586842,20.4575122 52.1039978,18.8663957 C52.104114,18.8660461 52.1042303,18.865813 52.1043465,18.8654634 C52.4987083,17.0525881 52.7512719,15.302523 52.8549474,13.6636287 C52.8550636,13.6623469 52.8549474,13.6611816 52.8549474,13.6600163 C52.9724539,11.8211545 52.9590877,10.0626992 52.8171732,8.43021409 Z" id="Shape"></path>
                </g>
                <g id="Group" transform="translate(14.000000, 11.000000)" fill="#FFB125">
                    <path d="M10.9458417,14.889403 C8.38169784,14.8895149 5.88247482,14.0059701 3.8937554,12.3602239 C1.44034532,10.3298507 0.0331510791,7.36902985 0.0331510791,4.23705224 L0.0331510791,1.31227612 C0.0331510791,0.974216418 0.168748201,0.65630597 0.414848921,0.417537313 C0.660143885,0.179664179 0.985899281,0.0486940299 1.33214388,0.0486940299 C1.33329496,0.0486940299 1.33444604,0.0486940299 1.33559712,0.0486940299 L9.20989928,0.0654850746 C9.70106475,0.0664925373 10.0984173,0.454589552 10.0973813,0.932350746 C10.0962302,1.40932836 9.69818705,1.79541045 9.20805755,1.79541045 C9.20736691,1.79541045 9.20667626,1.79541045 9.20598561,1.79541045 L1.81202878,1.77962687 L1.81191367,4.2369403 C1.81191367,6.8608209 2.99084892,9.34141791 5.04644604,11.0425746 C7.08627338,12.7306343 9.76794245,13.4608209 12.4024173,13.0451866 C12.4938129,13.0307463 12.5857842,13.0156343 12.6786763,12.9998507 C13.1630504,12.9182463 13.623482,13.2321269 13.7082014,13.7026119 C13.7929209,14.173209 13.4693525,14.6214179 12.985554,14.703806 C12.885295,14.7208209 12.7857266,14.7372761 12.6870791,14.7528358 C12.1070504,14.844403 11.5246043,14.889403 10.9458417,14.889403 Z" id="Shape"></path>
                    <path d="M21.0541583,14.889403 C20.4751655,14.889403 19.8931799,14.844403 19.3128058,14.7529478 C19.2141583,14.7373881 19.1145899,14.7209328 19.0143309,14.7039179 C18.5304173,14.6215299 18.206964,14.173209 18.2916835,13.7027239 C18.3764029,13.2321269 18.8378705,12.9181343 19.3212086,12.9999627 C19.4139856,13.0158582 19.5060719,13.0309701 19.5974676,13.0452985 C22.232518,13.460597 24.9136115,12.7307463 26.9534388,11.0426866 C29.009036,9.34164179 30.1879712,6.86104478 30.1879712,4.23705224 L30.1879712,1.77973881 L22.7940144,1.79552239 C22.7933237,1.79552239 22.7926331,1.79552239 22.7919424,1.79552239 C22.3016978,1.79552239 21.9036547,1.40955224 21.9026187,0.932462687 C21.9014676,0.454701493 22.2988201,0.0666044776 22.7901007,0.0655970149 L30.6647482,0.0488059701 C30.6658993,0.0488059701 30.6670504,0.0488059701 30.6682014,0.0488059701 C31.0142158,0.0488059701 31.3398561,0.179664179 31.5852662,0.417649254 C31.8313669,0.656529851 31.966964,0.974216418 31.966964,1.31238806 L31.966964,4.23716418 C31.966964,7.36914179 30.5598849,10.3299627 28.1063597,12.3603358 C26.1176403,14.0058582 23.6181871,14.889403 21.0541583,14.889403 Z" id="Shape"></path>
                </g>
                <path d="M23,39 L34,39 C29.4435237,32.8554522 29.9189934,24 29.9189934,24 L28.5000541,24 L27.0811149,24 C27.0811149,24.0001151 27.5565846,32.8555673 23,39 Z" id="Shape" fill="#FED130"></path>
                <path d="M29.9830535,24 L28.5864245,24 L27.1897956,24 C27.1897956,24 27.2622536,25.3749185 27.0758873,27.4169769 C26.7206297,31.3094133 27.6143145,35.2360413 29.7228438,38.4154035 C29.8536945,38.612725 29.9892337,38.807744 30.1295679,39 L34,39 C29.5150597,32.8555202 29.9830535,24 29.9830535,24 Z" id="Shape" fill="#F7BC14"></path>
                <path d="M21,8 L21,15.6229624 C21,20.1328938 23.2257231,24.3743689 26.9960077,27.0494337 C28.7824572,28.3168554 31.2175428,28.3168554 33.0039923,27.0494337 C36.7742769,24.3744819 39,20.1328938 39,15.6229624 L39,8 L21,8 Z" id="Shape" fill="#FED130"></path>
                <path d="M33.7696588,8 L33.7696588,15.6230254 C33.7696588,20.132994 31.5724176,24.3745041 27.8503804,27.0495911 C27.5804055,27.2436412 27.2953611,27.4076113 27,27.5421798 C28.6342234,28.2870563 30.5871077,28.1230862 32.0807216,27.0495911 C35.8027589,24.3746172 38,20.132994 38,15.6230254 L38,8 L33.7696588,8 Z" id="Shape" fill="#F7BC14"></path>
                <path d="M38.4824581,9 L19.5175419,9 C19.231699,9 19,8.7814043 19,8.51172669 L19,6.48827331 C19,6.2185957 19.231699,6 19.5175419,6 L38.4824581,6 C38.768301,6 39,6.2185957 39,6.48827331 L39,8.51172669 C38.9998846,8.7814043 38.7681855,9 38.4824581,9 Z" id="Shape" fill="#FFB125"></path>
                <path d="M39.5087412,6 L36,6 L36,9 L39.5087412,9 C39.7801282,9 40,8.78139636 40,8.51170896 L40,6.48818212 C40,6.21860364 39.7800186,6 39.5087412,6 Z" id="Shape" fill="#FF901D"></path>
                <path d="M39.5798177,43 L19.4201823,43 C19.1279582,43 18.9251311,42.7027649 19.0263705,42.4228398 L20.5234823,38.2802808 C20.5843188,38.111804 20.7415185,38 20.9172941,38 L38.0827059,38 C38.2584815,38 38.4156812,38.111804 38.4765177,38.2802808 L39.9736295,42.4228398 C40.0748689,42.7027649 39.8720418,43 39.5798177,43 Z" id="Shape" fill="#FFB125"></path>
                <path d="M39.9737324,42.4228398 L38.4795462,38.2802808 C38.4187127,38.111804 38.2619361,38 38.086388,38 L34,38 L35.8034521,43 L39.5805743,43 C39.8722274,43 40.0746581,42.7027649 39.9737324,42.4228398 Z" id="Shape" fill="#FF901D"></path>
            </g>
        </g>
    </g>
</svg>